<svg width="249" height="30" viewBox="0 0 249 30" fill="none" xmlns="http://www.w3.org/2000/svg">
<path d="M186.109 9.98132L185.423 13.1899L188.532 13.1903L187.553 15.8888L184.842 15.8879L183.893 20.4128C183.573 21.8678 183.715 22.3394 184.468 22.4067L184.574 22.4135L184.683 22.4155C185.035 22.4155 185.315 22.3956 185.621 22.3406L185.856 22.2924L186.155 22.2245L186.209 24.711L186.045 24.7741C185.17 25.1106 184.233 25.2649 183.067 25.2649C181.094 25.2649 180.101 24.3641 180.101 22.7733C180.101 22.2865 180.153 21.705 180.262 20.9912L180.356 20.4305L180.471 19.8167L180.537 19.4888L181.293 15.8879L179.739 15.8888L180.321 13.1903L181.872 13.1899L182.359 10.8624L186.109 9.98132Z" fill="white"/>
<path fill-rule="evenodd" clip-rule="evenodd" d="M169.557 13.5165C168.378 13.1066 167.08 12.8885 165.737 12.8885C161.008 12.8885 157.878 16.2827 157.878 21.0058C157.878 23.708 159.356 25.2434 161.512 25.2434L161.779 25.2366L162.07 25.2138C162.941 25.1214 163.778 24.8131 164.537 24.3101L164.592 24.2719L164.608 25.0353L167.97 24.9342V24.6916L167.973 24.2882C167.991 23.3752 168.076 22.6433 168.286 21.7531L170.146 13.7392L169.945 13.6602L169.557 13.5165ZM161.568 20.5316C161.568 17.7335 163.079 15.7164 165.004 15.7164L165.215 15.7197C165.553 15.731 165.826 15.7702 166.051 15.8368L166.114 15.8579L164.868 21.3819L164.742 21.5413C164.271 22.1031 163.701 22.4155 163.085 22.4155C162.127 22.4155 161.568 21.7886 161.568 20.5316Z" fill="white"/>
<path d="M153.429 12.8885C155.592 12.8885 156.891 14.1032 156.891 15.9837C156.891 16.2436 156.876 16.5034 156.842 16.7943L156.791 17.1602C156.772 17.2885 156.748 17.4237 156.722 17.5679L156.632 18.0294L156.519 18.5567L155.184 24.9416H151.633L153.012 18.4545C153.118 17.9445 153.179 17.4461 153.179 17.0829C153.179 16.0786 152.817 15.7164 151.856 15.7164C151.273 15.7164 150.698 15.939 150.108 16.4105L150.005 16.4959L149.998 16.5927C149.966 16.9352 149.913 17.2993 149.835 17.7226L149.728 18.2615L149.665 18.5567L148.33 24.9416H144.779L146.157 18.4565C146.263 17.9301 146.325 17.3864 146.325 16.9967C146.325 16.0496 145.977 15.7164 145.001 15.7164C144.462 15.7164 143.938 15.8985 143.417 16.2814L143.287 16.3819L141.453 24.9416H137.903L140.377 13.2686L143.999 13.0171L143.872 13.6179L143.927 13.5894C144.638 13.2238 145.342 12.9994 146.026 12.9205L146.318 12.8956L146.575 12.8885C147.902 12.8885 148.881 13.3163 149.454 14.1054L149.557 14.2576L149.591 14.3159L149.634 14.2842C150.752 13.4823 151.833 13.0297 152.898 12.9167L153.164 12.8956L153.429 12.8885Z" fill="white"/>
<path d="M178.217 12.8885C178.783 12.8885 179.232 13.0207 179.561 13.2663L179.679 13.3638L179.795 13.4704L178.86 16.5237L178.627 16.4625C178.247 16.3625 177.84 16.3199 177.268 16.3199C176.571 16.3199 175.933 16.5431 175.384 17.0081L175.275 17.1059L173.591 24.9416H170.062L172.537 13.2686L176.163 13.0167L175.955 13.9379L175.968 13.9252C176.502 13.3462 177.138 13.0089 177.82 12.9154L178.026 12.8947L178.217 12.8885Z" fill="white"/>
<path d="M133.592 6.51892C135.348 6.51892 136.655 6.97137 137.493 7.89551C138.343 8.82629 138.701 10.2333 138.571 12.0774L138.542 12.4074L138.52 12.6382H135.727L135.724 12.3845C135.712 11.3597 135.491 10.6165 135.092 10.1859C134.724 9.76354 134.044 9.54879 133.042 9.54879C132.172 9.54879 131.513 9.69281 131.021 9.99056C130.437 10.3192 130.087 10.8661 129.952 11.6535C129.838 12.3217 130.029 12.8389 130.542 13.2204L130.6 13.2607L130.671 13.3058L130.853 13.4104L131.087 13.5332L131.371 13.6733L131.705 13.8296L132.085 14.0014L132.741 14.2858L133.336 14.5364L133.886 14.7776L134.387 15.0088L134.62 15.1204L134.841 15.2292L135.244 15.4383L135.597 15.6353C135.87 15.7942 136.088 15.9398 136.249 16.0704C137.406 17.0555 137.835 18.4208 137.54 20.1493C137.256 21.8084 136.505 23.1347 135.297 24.0966C134.087 25.0377 132.527 25.5189 130.672 25.5189C128.849 25.5189 127.481 25.0739 126.593 24.1733C125.556 23.1107 125.152 21.4923 125.371 19.329L125.409 19.0004L125.437 18.7768H128.24L128.226 19.0473C128.159 20.343 128.364 21.2416 128.821 21.744C129.252 22.1959 130.015 22.4392 131.111 22.4392C132.1 22.4392 132.936 22.2292 133.566 21.8325C134.202 21.4108 134.565 20.8924 134.677 20.2349C134.821 19.3977 134.54 18.7467 133.827 18.2494L133.776 18.2165L133.712 18.1786L133.544 18.0885L133.325 17.9802L132.905 17.7856L132.183 17.4718L131.292 17.1032L131.002 16.9792L130.463 16.7445L129.98 16.5272L129.551 16.327L129.176 16.1434L128.854 15.9762L128.585 15.8248C128.423 15.7291 128.296 15.6438 128.203 15.5683C127.172 14.6855 126.806 13.3991 127.09 11.7391C127.372 10.0891 128.149 8.79029 129.422 7.86473C130.61 6.96294 131.993 6.51892 133.592 6.51892Z" fill="white"/>
<path d="M63.3616 18.3626C63.2246 18.7389 63.0675 19.1076 62.8912 19.4671C62.663 19.9339 62.3716 20.3671 62.0253 20.7544C61.6403 21.1822 61.1828 21.5385 60.6739 21.8071C60.0828 22.1058 59.4268 22.2529 58.7648 22.2353C57.3016 22.2353 56.193 21.7908 55.4675 20.9139C54.7421 20.0371 54.4189 18.7867 54.5253 17.2158C54.5926 16.2403 54.7865 15.2776 55.1021 14.3521C55.4041 13.4437 55.8452 12.5876 56.4098 11.8144C56.9461 11.0831 57.6259 10.4688 58.4075 10.0089C59.2212 9.54608 60.1443 9.31058 61.0803 9.32713C62.2912 9.32713 63.2048 9.62849 63.7966 10.2217C64.3884 10.8149 64.6421 11.6971 64.5643 12.8535L64.5493 13.0717H68.013L68.0321 12.8876C68.1434 11.96 68.0504 11.0194 67.7593 10.1317C67.4954 9.34846 67.0376 8.6448 66.4284 8.08622C65.7866 7.5254 65.0339 7.10586 64.2193 6.85485C63.2896 6.56212 62.3195 6.41807 61.3448 6.42803C60.1473 6.43492 58.9605 6.65518 57.8403 7.07849C56.6509 7.52426 55.5607 8.19931 54.6316 9.06531C53.6128 10.0292 52.7895 11.1807 52.2071 12.4567C51.5621 13.8203 51.1721 15.4444 51.048 17.2908C50.9671 18.3293 51.0752 19.374 51.3671 20.3739C51.6368 21.2971 52.105 22.1502 52.7389 22.8735C53.398 23.6033 54.2145 24.1736 55.1266 24.5412C56.0812 24.9421 57.2171 25.1453 58.4948 25.1453C59.3994 25.1466 60.2991 25.0114 61.1634 24.7444C62.0272 24.4774 62.8379 24.0621 63.5593 23.5171C64.3159 22.9367 64.9696 22.2333 65.493 21.4362C66.0819 20.5278 66.528 19.5344 66.8157 18.4908L66.8907 18.2289H63.4134L63.3616 18.3626Z" fill="white"/>
<path d="M204.492 18.3626C204.355 18.739 204.197 19.1077 204.02 19.4671C203.792 19.9339 203.501 20.3671 203.154 20.7544C202.77 21.1834 202.312 21.5412 201.803 21.8112C201.212 22.1095 200.556 22.2566 199.894 22.2394C198.431 22.2394 197.322 21.7948 196.597 20.918C195.871 20.0412 195.548 18.7908 195.654 17.2198C195.722 16.2443 195.916 15.2817 196.231 14.3562C196.534 13.448 196.975 12.592 197.539 11.8185C198.075 11.0872 198.755 10.4729 199.537 10.013C200.35 9.55035 201.274 9.31486 202.209 9.33121C203.42 9.33121 204.334 9.63257 204.926 10.2258C205.518 10.8189 205.773 11.7012 205.694 12.8576L205.68 13.0758H209.144L209.161 12.8917C209.273 11.9641 209.18 11.0235 208.889 10.1358C208.625 9.35255 208.167 8.64888 207.558 8.0903C206.917 7.52547 206.165 7.10215 205.35 6.84803C204.42 6.55518 203.45 6.41113 202.475 6.42121C201.278 6.4281 200.091 6.64836 198.971 7.07166C197.781 7.51744 196.691 8.19249 195.762 9.05848C194.743 10.0226 193.92 11.174 193.338 12.4498C192.693 13.8135 192.303 15.4376 192.179 17.2839C192.098 18.3225 192.206 19.367 192.498 20.3671C192.768 21.2902 193.236 22.1432 193.869 22.8667C194.529 23.5968 195.346 24.1671 196.259 24.5344C197.213 24.9353 198.348 25.1385 199.627 25.1385C200.531 25.1395 201.431 25.0044 202.295 24.7376C203.159 24.4705 203.969 24.0552 204.69 23.5103C205.447 22.9303 206.101 22.2268 206.624 21.4294C207.213 20.5211 207.659 19.5277 207.946 18.4839L208.021 18.2221H204.545L204.492 18.3626Z" fill="white"/>
<path d="M216.643 13.2803C215.765 13.2803 214.786 13.5653 213.789 14.108L214.944 8.71075L211.553 8.94666L208.268 24.4812L208.215 24.7294H211.537L213.283 16.4739C213.836 16.1142 214.48 15.9202 215.139 15.9148C216.094 15.9148 216.48 16.2967 216.48 17.2335C216.468 17.6424 216.415 18.0491 216.32 18.4471L214.992 24.7294H218.314L219.604 18.6558C219.822 17.6112 219.918 17.0262 219.918 16.328C219.916 14.4203 218.693 13.2803 216.643 13.2803Z" fill="white"/>
<path fill-rule="evenodd" clip-rule="evenodd" d="M228.32 13.2802C229.69 13.2753 231.049 13.5245 232.328 14.0152L232.496 14.082L230.723 21.7102C230.505 22.6321 230.403 23.5776 230.42 24.5248V24.7239L227.276 24.818L227.259 24.0625C226.389 24.6781 225.35 25.0113 224.284 25.017C222.619 25.017 220.846 23.963 220.846 21.0025C220.846 16.4561 223.92 13.2802 228.32 13.2802ZM227.538 21.3284L228.721 16.0607C228.366 15.951 227.996 15.9013 227.625 15.9134C225.735 15.9134 224.308 17.907 224.308 20.5498C224.308 21.732 224.838 22.3839 225.792 22.3839C226.447 22.3839 227.03 22.028 227.538 21.3284Z" fill="white"/>
<path d="M236.645 12.1703C237.147 12.1799 237.649 12.148 238.145 12.0749L238.282 12.0476L238.887 9.18395L238.689 9.14031C238.11 9.01077 236.322 9.01077 235.7 9.14031L235.564 9.16758L234.958 12.0312L235.156 12.0749C235.649 12.1506 236.147 12.1826 236.645 12.1703Z" fill="white"/>
<path d="M234.545 13.6785L232.196 24.7648H235.496L237.937 13.4426L234.545 13.6785Z" fill="white"/>
<path d="M245.745 13.2803C244.894 13.2803 243.931 13.5639 242.941 14.0985L243.104 13.403L239.708 13.6376L237.356 24.7294H240.657L242.366 16.7221C242.958 16.1862 243.593 15.9148 244.24 15.9148C245.161 15.9148 245.538 16.2967 245.538 17.2335C245.521 17.5821 245.476 17.9288 245.401 18.2698L244.038 24.7294H247.36L248.651 18.6558C248.883 17.5362 248.985 16.9785 248.985 16.328C248.999 14.4203 247.782 13.2803 245.745 13.2803Z" fill="white"/>
<path fill-rule="evenodd" clip-rule="evenodd" d="M67.6558 20.5498C67.6558 16.3376 70.548 13.2803 74.5339 13.2803C77.4726 13.2803 79.3721 15.0353 79.3721 17.7489C79.3721 21.893 76.4239 25.0171 72.5158 25.0171C70.0967 25.0171 67.6558 23.6358 67.6558 20.5498ZM72.9276 22.3839C74.6021 22.3839 75.9139 20.5008 75.9139 18.0994C75.9139 16.1985 74.778 15.9148 74.1017 15.9148C72.4367 15.9148 71.1344 17.7871 71.1344 20.1789C71.1344 22.0976 72.258 22.3839 72.9276 22.3839Z" fill="white"/>
<path d="M81.8578 13.6785L79.5083 24.7648H82.8097L85.2492 13.4426L81.8578 13.6785Z" fill="white"/>
<path d="M83.9592 12.1703C84.461 12.1799 84.9627 12.148 85.4592 12.0749L85.5955 12.0476L86.201 9.18395L86.0033 9.14031C85.4224 9.01077 83.6346 9.01077 83.0128 9.14031L82.8765 9.16758L82.271 12.0312L82.4687 12.0749C82.9617 12.1506 83.4605 12.1826 83.9592 12.1703Z" fill="white"/>
<path d="M93.1285 13.3894C92.2775 13.3894 91.3148 13.6717 90.3248 14.2076L90.4871 13.5121L87.0903 13.748L84.7407 24.8344H88.0421L89.7521 16.8271C90.3439 16.2912 90.9794 16.0199 91.6244 16.0199C92.5475 16.0199 92.9239 16.4017 92.9239 17.3399C92.9074 17.6881 92.8618 18.0343 92.7875 18.3749L91.4239 24.8344H94.7471L96.0371 18.7608C96.2703 17.6426 96.3712 17.0835 96.3712 16.433C96.378 14.528 95.163 13.3894 93.1285 13.3894Z" fill="white"/>
<path d="M101.272 18.2057H106.998L107.921 15.5303H101.833L102.611 11.8621H109.12L110.043 9.18802H99.8078L96.4873 24.8371H106.483L107.43 22.1617H100.432L101.272 18.2057Z" fill="white"/>
<path d="M117.632 13.6771L115.27 16.8271L114.194 13.6771H110.299L112.918 18.9762L107.636 24.8371H111.572L114.221 21.5262L115.642 24.8371H119.325L116.478 19.2899L121.639 13.6771H117.632Z" fill="white"/>
<path d="M29.0986 7.21621C32.3758 6.50869 35.7429 7.94424 37.5015 10.7987C39.26 13.6531 39.0278 17.3061 36.922 19.9149C34.8162 22.5237 31.2944 23.5214 28.1332 22.4046C24.972 21.2878 22.8584 18.2993 22.8586 14.9467H15.8618C15.8563 21.644 20.3121 27.5253 26.7609 29.3327C33.2098 31.1402 40.0731 28.4313 43.5492 22.7067C47.0252 16.9821 46.2632 9.64303 41.6851 4.75473C37.107 -0.133567 29.8335 -1.37446 23.8936 1.7194C26.0695 3.07719 27.8614 4.96957 29.0986 7.21621Z" fill="white"/>
<path d="M16.6188 22.673C13.3418 23.3805 9.97478 21.9451 8.21618 19.0909C6.45757 16.2366 6.68953 12.5837 8.79503 9.97487C10.9005 7.36599 14.4221 6.368 17.5833 7.48431C20.7445 8.60063 22.8585 11.5887 22.8588 14.9412H29.8557C29.8611 8.24387 25.4054 2.36263 18.9566 0.555181C12.5077 -1.25226 5.64441 1.45655 2.16833 7.18117C-1.30776 12.9058 -0.54569 20.2449 4.03241 25.1332C8.61051 30.0215 15.8839 31.2623 21.8238 28.1685C19.6482 26.811 17.8563 24.9191 16.6188 22.673Z" fill="white"/>
</svg>
