<?xml version="1.0" encoding="UTF-8"?>
<!DOCTYPE svg PUBLIC "-//W3C//DTD SVG 1.1//EN" "http://www.w3.org/Graphics/SVG/1.1/DTD/svg11.dtd">
<!-- Creator: CorelDRAW 2021 (64-Bit) -->
<svg xmlns="http://www.w3.org/2000/svg" xml:space="preserve" width="210mm" height="297mm" version="1.1" style="shape-rendering:geometricPrecision; text-rendering:geometricPrecision; image-rendering:optimizeQuality; fill-rule:evenodd; clip-rule:evenodd"
viewBox="0 0 21000 29700"
 xmlns:xlink="http://www.w3.org/1999/xlink"
 xmlns:xodm="http://www.corel.com/coreldraw/odm/2003">
 <defs>
  <style type="text/css">
   <![CDATA[
    .fil0 {fill:white;fill-rule:nonzero}
   ]]>
  </style>
 </defs>
 <g id="Layer_x0020_1">
  <metadata id="CorelCorpID_0Corel-Layer"/>
  <path class="fil0" d="M10016.72 7444.22c315.81,-68.18 640.29,70.19 809.73,345.25 169.47,275.05 147.11,627.11 -55.84,878.49 -202.9,251.39 -542.28,347.54 -846.91,239.91 -304.67,-107.62 -508.34,-395.61 -508.31,-718.67l-674.28 0c-0.51,645.39 428.87,1212.15 1050.34,1386.32 621.43,174.17 1282.81,-86.86 1617.82,-638.51 334.97,-551.68 261.51,-1258.92 -179.63,-1729.97 -441.18,-471.08 -1142.12,-590.65 -1714.52,-292.5 209.68,130.83 382.35,313.19 501.6,529.68z"/>
  <path class="fil0" d="M8814.07 8933.73c-315.78,68.18 -640.26,-70.11 -809.73,-345.17 -169.48,-275.06 -147.11,-627.07 55.79,-878.49 202.91,-251.39 542.25,-347.58 846.89,-239.99 304.63,107.56 508.37,395.51 508.37,718.57l674.28 0c0.51,-645.4 -428.87,-1212.12 -1050.3,-1386.33 -621.46,-174.17 -1282.85,86.87 -1617.82,638.55 -334.97,551.65 -261.55,1258.89 179.63,1729.97 441.18,471.04 1142.08,590.62 1714.49,292.5 -209.65,-130.82 -382.32,-313.15 -501.6,-529.61z"/>
 </g>
</svg>
