<?xml version="1.0" encoding="UTF-8"?>
<!DOCTYPE svg PUBLIC "-//W3C//DTD SVG 1.1//EN" "http://www.w3.org/Graphics/SVG/1.1/DTD/svg11.dtd">
<!-- Creator: CorelDRAW 2021 (64-Bit) -->
<svg xmlns="http://www.w3.org/2000/svg" xml:space="preserve" width="3508px" height="2480px" version="1.1" style="shape-rendering:geometricPrecision; text-rendering:geometricPrecision; image-rendering:optimizeQuality; fill-rule:evenodd; clip-rule:evenodd"
viewBox="0 0 3508 2480.4"
 xmlns:xlink="http://www.w3.org/1999/xlink"
 xmlns:xodm="http://www.corel.com/coreldraw/odm/2003">
 <defs>
  <style type="text/css">
   <![CDATA[
    .fil0 {fill:white;fill-rule:nonzero}
   ]]>
  </style>
 </defs>
 <g id="Layer_x0020_1">
  <metadata id="CorelCorpID_0Corel-Layer"/>
  <g id="_2639806189808">
   <path class="fil0" d="M2177.37 689.47c222.22,-47.98 450.54,49.38 569.77,242.93 119.25,193.55 103.51,441.27 -39.29,618.16 -142.78,176.88 -381.58,244.54 -595.94,168.81 -214.38,-75.73 -357.69,-278.37 -357.67,-505.7l-474.46 0c-0.36,454.14 301.78,852.94 739.08,975.49 437.27,122.56 902.65,-61.12 1138.38,-449.29 235.71,-388.19 184.01,-885.84 -126.4,-1217.29 -310.43,-331.48 -803.65,-415.62 -1206.43,-205.83 147.55,92.06 269.05,220.38 352.96,372.72z"/>
   <path class="fil0" d="M1331.12 1737.57c-222.2,47.97 -450.52,-49.34 -569.77,-242.88 -119.25,-193.55 -103.52,-441.25 39.26,-618.16 142.78,-176.89 381.55,-244.57 595.91,-168.87 214.36,75.68 357.72,278.3 357.72,505.63l474.46 0c0.36,-454.14 -301.77,-852.92 -739.05,-975.5 -437.29,-122.55 -902.68,61.13 -1138.38,449.32 -235.71,388.17 -184.04,885.82 126.4,1217.3 310.43,331.45 803.63,415.59 1206.4,205.82 -147.52,-92.06 -269.02,-220.35 -352.95,-372.66z"/>
  </g>
 </g>
</svg>
