<svg id="splitsvg" version="1.1" xmlns="http://www.w3.org/2000/svg" xmlns:xlink="http://www.w3.org/1999/xlink" width="1380" height="400"><g id="svgg"><path id="path0" d="M147.200 122.753 C 147.200 155.507,146.913 182.483,146.562 182.700 C 146.210 182.917,142.520 183.676,138.362 184.386 C 106.458 189.834,80.513 201.006,72.830 212.606 C 70.139 216.669,69.923 217.357,69.263 224.000 C 69.023 226.420,68.472 230.920,68.039 234.000 C 62.998 269.877,76.011 293.189,103.464 297.463 C 110.897 298.620,110.628 298.334,118.326 313.276 C 127.443 330.974,130.565 335.810,133.320 336.502 C 138.009 337.678,146.932 330.665,155.819 318.818 C 166.244 304.921,163.137 302.300,199.469 355.638 C 205.722 364.817,207.859 364.983,209.299 356.400 C 211.849 341.209,222.118 315.200,225.566 315.200 C 225.949 315.200,229.169 318.580,232.723 322.711 C 256.016 349.787,263.488 348.854,288.762 315.712 C 294.681 307.951,299.721 301.626,299.962 301.658 C 300.203 301.691,303.280 305.003,306.800 309.020 C 324.400 329.105,326.287 329.738,332.391 317.617 C 351.748 279.179,355.554 226.478,340.199 209.483 C 330.657 198.921,304.114 188.528,275.000 183.955 L 268.800 182.980 268.800 157.108 L 268.800 131.235 253.800 131.018 L 238.800 130.800 238.579 119.508 L 238.357 108.217 243.070 107.289 C 249.499 106.025,259.409 99.298,257.121 97.751 C 247.015 90.915,243.757 86.528,247.204 84.397 C 248.554 83.563,248.045 82.069,245.871 80.485 C 244.151 79.230,243.682 79.161,243.151 80.085 C 240.556 84.596,240.667 84.600,234.560 79.728 C 227.730 74.278,228.728 74.278,225.973 79.724 C 221.473 88.617,222.593 97.897,228.847 103.547 L 232.000 106.396 232.000 118.798 L 232.000 131.200 216.400 131.200 L 200.800 131.200 200.800 97.200 L 200.800 63.200 174.000 63.200 L 147.200 63.200 147.200 122.753 M195.595 68.792 C 195.864 69.227,195.828 104.867,195.515 147.992 L 194.945 226.400 189.472 226.400 L 184.000 226.400 184.000 208.000 L 184.000 189.600 173.600 189.600 L 163.200 189.600 163.200 208.000 L 163.200 226.400 157.600 226.400 L 152.000 226.400 152.000 147.200 L 152.000 68.000 173.553 68.000 C 186.911 68.000,195.292 68.301,195.595 68.792 M58.521 77.597 C 49.706 80.768,42.783 89.573,41.828 98.825 L 41.376 103.200 82.232 103.200 L 123.088 103.200 122.428 100.898 C 118.451 87.031,103.780 79.046,89.913 83.201 C 86.750 84.148,86.531 84.089,82.890 81.310 C 76.030 76.074,66.705 74.653,58.521 77.597 M74.676 82.081 C 76.939 82.853,79.870 84.796,82.036 86.962 C 85.417 90.343,85.743 90.491,87.417 89.402 C 92.833 85.880,102.568 85.996,108.485 89.652 C 111.304 91.395,116.000 96.378,116.000 97.628 C 116.000 98.112,103.011 98.400,81.146 98.400 L 46.292 98.400 46.849 96.600 C 50.629 84.374,62.787 78.031,74.676 82.081 M241.448 90.841 C 252.240 99.509,252.173 99.337,245.826 102.085 C 236.090 106.301,226.226 99.143,227.456 88.756 C 228.029 83.920,229.349 81.221,230.656 82.214 C 231.175 82.608,236.032 86.490,241.448 90.841 M160.800 94.000 L 160.800 98.400 165.200 98.400 L 169.600 98.400 169.600 94.000 L 169.600 89.600 165.200 89.600 L 160.800 89.600 160.800 94.000 M178.400 94.000 L 178.400 98.400 182.400 98.400 L 186.400 98.400 186.400 94.000 L 186.400 89.600 182.400 89.600 L 178.400 89.600 178.400 94.000 M160.800 105.200 L 160.800 109.600 165.200 109.600 L 169.600 109.600 169.600 105.200 L 169.600 100.800 165.200 100.800 L 160.800 100.800 160.800 105.200 M178.400 105.200 L 178.400 109.600 182.400 109.600 L 186.400 109.600 186.400 105.200 L 186.400 100.800 182.400 100.800 L 178.400 100.800 178.400 105.200 M160.800 116.800 L 160.800 120.800 165.200 120.800 L 169.600 120.800 169.600 116.800 L 169.600 112.800 165.200 112.800 L 160.800 112.800 160.800 116.800 M178.400 116.800 L 178.400 120.800 182.400 120.800 L 186.400 120.800 186.400 116.800 L 186.400 112.800 182.400 112.800 L 178.400 112.800 178.400 116.800 M307.841 120.822 C 296.993 122.651,287.200 133.638,287.200 143.980 L 287.200 146.400 327.215 146.400 L 367.230 146.400 366.703 144.200 C 363.667 131.537,344.304 121.962,333.721 127.889 C 332.032 128.835,331.547 128.704,328.921 126.594 C 324.572 123.100,312.517 118.562,311.653 120.094 C 311.624 120.146,309.908 120.473,307.841 120.822 M160.800 128.400 L 160.800 132.800 165.200 132.800 L 169.600 132.800 169.600 128.400 L 169.600 124.000 165.200 124.000 L 160.800 124.000 160.800 128.400 M178.400 128.400 L 178.400 132.800 182.400 132.800 L 186.400 132.800 186.400 128.400 L 186.400 124.000 182.400 124.000 L 178.400 124.000 178.400 128.400 M319.278 125.376 C 321.978 126.248,324.836 127.995,327.077 130.142 C 330.611 133.528,330.615 133.530,333.101 132.245 C 340.431 128.454,351.001 130.225,357.268 136.294 C 363.971 142.787,365.928 142.400,326.400 142.400 C 298.769 142.400,291.202 142.185,291.208 141.400 C 291.293 130.447,307.079 121.436,319.278 125.376 M160.800 139.600 L 160.800 144.000 165.200 144.000 L 169.600 144.000 169.600 139.600 L 169.600 135.200 165.200 135.200 L 160.800 135.200 160.800 139.600 M178.400 139.600 L 178.400 144.000 182.400 144.000 L 186.400 144.000 186.400 139.600 L 186.400 135.200 182.400 135.200 L 178.400 135.200 178.400 139.600 M264.000 181.200 L 264.000 226.400 232.400 226.400 L 200.800 226.400 200.800 181.200 L 200.800 136.000 232.400 136.000 L 264.000 136.000 264.000 181.200 M209.600 151.200 L 209.600 156.800 215.200 156.800 L 220.800 156.800 220.800 151.200 L 220.800 145.600 215.200 145.600 L 209.600 145.600 209.600 151.200 M227.200 151.200 L 227.200 156.800 232.400 156.800 L 237.600 156.800 237.600 151.200 L 237.600 145.600 232.400 145.600 L 227.200 145.600 227.200 151.200 M243.200 151.200 L 243.200 156.800 248.800 156.800 L 254.400 156.800 254.400 151.200 L 254.400 145.600 248.800 145.600 L 243.200 145.600 243.200 151.200 M160.800 150.800 L 160.800 155.200 165.200 155.200 L 169.600 155.200 169.600 150.800 L 169.600 146.400 165.200 146.400 L 160.800 146.400 160.800 150.800 M178.400 150.800 L 178.400 155.200 182.400 155.200 L 186.400 155.200 186.400 150.800 L 186.400 146.400 182.400 146.400 L 178.400 146.400 178.400 150.800 M160.800 162.400 L 160.800 166.400 165.200 166.400 L 169.600 166.400 169.600 162.400 L 169.600 158.400 165.200 158.400 L 160.800 158.400 160.800 162.400 M178.400 162.400 L 178.400 166.400 182.400 166.400 L 186.400 166.400 186.400 162.400 L 186.400 158.400 182.400 158.400 L 178.400 158.400 178.400 162.400 M209.600 166.400 L 209.600 172.000 215.200 172.000 L 220.800 172.000 220.800 166.400 L 220.800 160.800 215.200 160.800 L 209.600 160.800 209.600 166.400 M226.400 166.400 L 226.400 172.000 232.000 172.000 L 237.600 172.000 237.600 166.400 L 237.600 160.800 232.000 160.800 L 226.400 160.800 226.400 166.400 M243.200 166.400 L 243.200 172.000 248.800 172.000 L 254.400 172.000 254.400 166.400 L 254.400 160.800 248.800 160.800 L 243.200 160.800 243.200 166.400 M160.800 174.000 L 160.800 178.400 165.200 178.400 L 169.600 178.400 169.600 174.000 L 169.600 169.600 165.200 169.600 L 160.800 169.600 160.800 174.000 M178.400 174.000 L 178.400 178.400 182.400 178.400 L 186.400 178.400 186.400 174.000 L 186.400 169.600 182.400 169.600 L 178.400 169.600 178.400 174.000 M209.600 181.600 L 209.600 187.200 215.200 187.200 L 220.800 187.200 220.800 181.600 L 220.800 176.000 215.200 176.000 L 209.600 176.000 209.600 181.600 M226.563 181.400 L 226.800 186.800 232.200 187.037 L 237.600 187.273 237.600 181.637 L 237.600 176.000 231.963 176.000 L 226.327 176.000 226.563 181.400 M243.200 181.600 L 243.200 187.200 248.800 187.200 L 254.400 187.200 254.400 181.600 L 254.400 176.000 248.800 176.000 L 243.200 176.000 243.200 181.600 M147.200 209.600 L 147.200 231.200 208.000 231.200 L 268.800 231.200 268.800 209.530 L 268.800 187.859 272.200 188.398 C 327.132 197.099,354.700 217.795,333.976 234.777 C 293.428 268.003,140.282 270.688,87.839 239.093 C 68.730 227.581,70.216 214.927,92.000 203.673 C 104.447 197.243,133.984 188.678,145.800 188.072 C 147.101 188.005,147.200 189.535,147.200 209.600 M178.218 209.800 L 178.437 224.000 174.018 224.000 L 169.600 224.000 169.600 209.558 L 169.600 195.116 173.800 195.358 L 178.000 195.600 178.218 209.800 M343.334 256.000 C 341.632 278.906,329.557 319.200,324.396 319.200 C 323.862 319.200,318.665 313.797,312.846 307.192 C 298.353 290.744,300.363 290.958,290.000 304.758 C 270.568 330.635,261.629 338.700,255.330 336.035 C 252.822 334.974,243.799 326.437,234.788 316.600 C 227.874 309.052,226.029 308.234,221.947 310.909 C 217.823 313.611,210.495 328.717,206.866 342.000 C 205.664 346.400,204.522 350.493,204.329 351.095 C 203.942 352.299,204.228 352.689,190.939 332.800 C 169.529 300.754,163.605 297.621,153.101 312.786 C 147.687 320.601,137.373 331.200,135.181 331.200 C 134.515 331.200,125.566 315.281,120.503 305.089 C 115.325 294.667,113.732 293.331,104.824 291.949 C 81.326 288.304,69.964 269.545,73.162 239.676 L 73.747 234.219 76.673 237.027 C 117.567 276.268,300.862 275.691,339.600 236.199 L 342.800 232.936 343.528 238.268 C 343.999 241.721,343.931 247.971,343.334 256.000  M -25 0 L -5 0 L -5 20 L -25 20 Z M 405 0 L 425 0 L 425 20 L 405 20 Z" stroke="none" fill="#000000" fill-rule="evenodd" transform="translate(30,0)"></path></g></svg>