<?xml version="1.0" encoding="UTF-8"?>
<!DOCTYPE svg PUBLIC "-//W3C//DTD SVG 1.1//EN" "http://www.w3.org/Graphics/SVG/1.1/DTD/svg11.dtd">
<!-- Creator: CorelDRAW 2021 (64-Bit) -->
<svg xmlns="http://www.w3.org/2000/svg" xml:space="preserve" width="2480px" height="2480px" version="1.1" style="shape-rendering:geometricPrecision; text-rendering:geometricPrecision; image-rendering:optimizeQuality; fill-rule:evenodd; clip-rule:evenodd"
viewBox="0 0 2480 2480"
 xmlns:xlink="http://www.w3.org/1999/xlink"
 xmlns:xodm="http://www.corel.com/coreldraw/odm/2003">
 <defs>
  <style type="text/css">
   <![CDATA[
    .fil0 {fill:black}
   ]]>
  </style>
 </defs>
 <g id="Layer_x0020_1">
  <metadata id="CorelCorpID_0Corel-Layer"/>
  <g id="_2640026428576">
   <g id="svgg">
    <g>
     <path id="path0" class="fil0" d="M852.09 638.55c0,231.8 -2.03,422.71 -4.51,424.25 -2.49,1.53 -28.6,6.9 -58.03,11.93 -225.79,38.55 -409.4,117.62 -463.77,199.71 -19.05,28.75 -20.58,33.62 -25.25,80.64 -1.69,17.12 -5.59,48.97 -8.66,70.77 -35.67,253.9 56.42,418.88 250.7,449.12 52.61,8.19 50.71,6.17 105.18,111.91 64.52,125.25 86.62,159.48 106.12,164.37 33.18,8.33 96.33,-41.3 159.22,-125.15 73.78,-98.35 51.79,-116.89 308.91,260.58 44.25,64.96 59.38,66.13 69.57,5.39 18.04,-107.51 90.72,-291.57 115.12,-291.57 2.71,0 25.5,23.92 50.65,53.15 164.85,191.62 217.73,185.02 396.59,-49.53 41.89,-54.92 77.56,-99.69 79.26,-99.46 1.71,0.24 23.48,23.67 48.39,52.1 124.56,142.14 137.91,146.62 181.11,60.84 136.99,-272.02 163.93,-644.99 55.26,-765.26 -67.53,-74.75 -255.37,-148.3 -461.41,-180.66l-43.88 -6.9 0 -183.1 0 -183.1 -106.16 -1.54 -106.15 -1.54 -1.56 -79.91 -1.58 -79.91 33.36 -6.57c45.49,-8.94 115.63,-56.55 99.44,-67.5 -71.52,-48.38 -94.58,-79.42 -70.19,-94.51 9.56,-5.9 5.96,-16.47 -9.43,-27.68 -12.17,-8.88 -15.49,-9.37 -19.25,-2.83 -18.37,31.92 -17.58,31.95 -60.8,-2.53 -48.33,-38.57 -41.27,-38.57 -60.77,-0.03 -31.84,62.94 -23.92,128.61 20.34,168.6l22.32 20.16 0 87.77 0 87.77 -110.41 0 -110.4 0 0 -240.62 0 -240.62 -189.66 0 -189.67 0 0 421.46 0 0zm342.5 -381.88c1.9,3.08 1.65,255.3 -0.57,560.5l-4.03 554.89 -38.74 0 -38.72 0 0 -130.22 0 -130.21 -73.6 0 -73.6 0 0 130.21 0 130.22 -39.63 0 -39.64 0 0 -560.5 0 -560.5 152.54 0c94.53,0 153.84,2.13 155.99,5.61l0 0zm-970.08 62.31c-62.38,22.44 -111.38,84.76 -118.13,150.23l-3.2 30.96 289.13 0 289.14 0 -4.67 -16.29c-28.14,-98.13 -131.97,-154.64 -230.11,-125.24 -22.38,6.7 -23.93,6.28 -49.7,-13.38 -48.55,-37.06 -114.54,-47.11 -172.46,-26.28l0 0zm114.33 31.73c16.02,5.47 36.76,19.22 52.09,34.55 23.92,23.92 26.23,24.97 38.08,17.27 38.33,-24.93 107.22,-24.11 149.1,1.77 19.95,12.33 53.18,47.59 53.18,56.44 0,3.43 -91.92,5.46 -246.66,5.46l-246.66 0 3.94 -12.73c26.75,-86.53 112.79,-131.42 196.93,-102.76l0 0zm1180.25 62c76.37,61.34 75.9,60.12 30.98,79.57 -68.9,29.84 -138.71,-20.82 -130,-94.33 4.05,-34.22 13.39,-53.32 22.64,-46.29 3.68,2.78 38.05,30.26 76.38,61.05l0 0zm-570.75 22.36l0 31.13 31.14 0 31.14 0 0 -31.13 0 -31.14 -31.14 0 -31.14 0 0 31.14 0 0zm124.56 0l0 31.13 28.3 0 28.31 0 0 -31.13 0 -31.14 -28.31 0 -28.3 0 0 31.14 0 0zm-124.56 79.26l0 31.14 31.14 0 31.14 0 0 -31.14 0 -31.14 -31.14 0 -31.14 0 0 31.14 0 0zm124.56 0l0 31.14 28.3 0 28.31 0 0 -31.14 0 -31.14 -28.31 0 -28.3 0 0 31.14 0 0zm-124.56 82.09l0 28.31 31.14 0 31.14 0 0 -28.31 0 -28.31 -31.14 0 -31.14 0 0 28.31 0 0zm124.56 0l0 28.31 28.3 0 28.31 0 0 -28.31 0 -28.31 -28.31 0 -28.3 0 0 28.31 0 0zm916.05 28.46c-76.77,12.95 -146.07,90.7 -146.07,163.89l0 17.13 283.18 0 283.19 0 -3.73 -15.57c-21.49,-89.62 -158.52,-157.38 -233.42,-115.43 -11.95,6.69 -15.38,5.77 -33.97,-9.17 -30.77,-24.73 -116.09,-56.84 -122.2,-46 -0.2,0.37 -12.35,2.69 -26.98,5.15l0 0zm-1040.61 53.63l0 31.14 31.14 0 31.14 0 0 -31.14 0 -31.13 -31.14 0 -31.14 0 0 31.13 0 0zm124.56 0l0 31.14 28.3 0 28.31 0 0 -31.14 0 -31.13 -28.31 0 -28.3 0 0 31.13 0 0zm996.99 -21.4c19.11,6.17 39.33,18.54 55.2,33.73 25.01,23.96 25.03,23.98 42.63,14.89 51.87,-26.83 126.67,-14.3 171.03,28.65 47.43,45.95 61.28,43.21 -218.46,43.21 -195.54,0 -249.09,-1.52 -249.05,-7.08 0.6,-77.51 112.32,-141.28 198.65,-113.4l0 0zm-1121.55 100.67l0 31.13 31.14 0 31.14 0 0 -31.13 0 -31.14 -31.14 0 -31.14 0 0 31.14 0 0zm124.56 0l0 31.13 28.3 0 28.31 0 0 -31.13 0 -31.14 -28.31 0 -28.3 0 0 31.14 0 0zm605.79 294.4l0 319.88 -223.64 0 -223.63 0 0 -319.88 0 -319.88 223.63 0 223.64 0 0 319.88 0 0zm-384.99 -212.31l0 39.63 39.63 0 39.63 0 0 -39.63 0 -39.63 -39.63 0 -39.63 0 0 39.63 0 0zm124.56 0l0 39.63 36.79 0 36.8 0 0 -39.63 0 -39.63 -36.8 0 -36.79 0 0 39.63 0 0zm113.23 0l0 39.63 39.63 0 39.63 0 0 -39.63 0 -39.63 -39.63 0 -39.63 0 0 39.63 0 0zm-583.15 -2.83l0 31.14 31.14 0 31.14 0 0 -31.14 0 -31.14 -31.14 0 -31.14 0 0 31.14 0 0zm124.56 0l0 31.14 28.3 0 28.31 0 0 -31.14 0 -31.14 -28.31 0 -28.3 0 0 31.14 0 0zm-124.56 82.09l0 28.31 31.14 0 31.14 0 0 -28.31 0 -28.31 -31.14 0 -31.14 0 0 28.31 0 0zm124.56 0l0 28.31 28.3 0 28.31 0 0 -28.31 0 -28.31 -28.31 0 -28.3 0 0 28.31 0 0zm220.8 28.31l0 39.63 39.63 0 39.63 0 0 -39.63 0 -39.63 -39.63 0 -39.63 0 0 39.63 0 0zm118.89 0l0 39.63 39.64 0 39.62 0 0 -39.63 0 -39.63 -39.62 0 -39.64 0 0 39.63 0 0zm118.9 0l0 39.63 39.63 0 39.63 0 0 -39.63 0 -39.63 -39.63 0 -39.63 0 0 39.63 0 0zm-583.15 53.78l0 31.14 31.14 0 31.14 0 0 -31.14 0 -31.13 -31.14 0 -31.14 0 0 31.13 0 0zm124.56 0l0 31.14 28.3 0 28.31 0 0 -31.14 0 -31.13 -28.31 0 -28.3 0 0 31.13 0 0zm220.8 53.79l0 39.63 39.63 0 39.63 0 0 -39.63 0 -39.63 -39.63 0 -39.63 0 0 39.63 0 0zm120.05 -1.41l1.67 38.21 38.22 1.68 38.21 1.67 0 -39.89 0 -39.89 -39.89 0 -39.88 0 1.67 38.22 0 0zm117.74 1.41l0 39.63 39.63 0 39.63 0 0 -39.63 0 -39.63 -39.63 0 -39.63 0 0 39.63 0 0zm-679.4 198.16l0 152.86 430.29 0 430.28 0 0 -153.36 0 -153.36 24.06 3.81c388.75,61.58 583.85,208.04 437.19,328.22 -286.96,235.15 -1370.77,254.15 -1741.91,30.55 -135.24,-81.47 -124.72,-171.03 29.44,-250.67 88.09,-45.5 297.13,-106.12 380.75,-110.41 9.2,-0.47 9.9,10.36 9.9,152.36l0 0zm219.52 1.41l1.55 100.5 -31.27 0 -31.27 0 0 -102.21 0 -102.21 29.72 1.72 29.73 1.71 1.54 100.49 0 0zm1168.53 326.96c-12.05,162.11 -97.51,447.27 -134.03,447.27 -3.78,0 -40.56,-38.24 -81.74,-84.98 -102.56,-116.41 -88.34,-114.89 -161.68,-17.23 -137.52,183.13 -200.78,240.21 -245.36,221.35 -17.75,-7.51 -81.6,-67.93 -145.38,-137.54 -48.92,-53.42 -61.98,-59.21 -90.87,-40.28 -29.19,19.12 -81.05,126.03 -106.73,220.03 -8.51,31.14 -16.59,60.11 -17.95,64.37 -2.74,8.52 -0.72,11.28 -94.76,-129.47 -151.52,-226.8 -193.45,-248.97 -267.78,-141.64 -38.32,55.3 -111.31,130.31 -126.82,130.31 -4.72,0 -68.05,-112.66 -103.88,-184.79 -36.65,-73.75 -47.92,-83.21 -110.96,-92.99 -166.3,-25.79 -246.71,-158.55 -224.07,-369.93l4.14 -38.62 20.7 19.87c289.41,277.71 1586.59,273.62 1860.74,-5.86l22.65 -23.09 5.15 37.73c3.33,24.44 2.85,68.67 -1.37,125.49z"/>
    </g>
   </g>
  </g>
 </g>
</svg>
