<svg id="svg" version="1.1" xmlns="http://www.w3.org/2000/svg" xmlns:xlink="http://www.w3.org/1999/xlink" width="400" height="400" viewBox="0, 0, 400,400"><g id="svgg"><path id="path0" d="M146.792 122.864 L 146.750 182.728 141.667 183.594 C 95.253 191.496,68.843 205.973,69.370 223.224 C 69.439 225.471,69.414 225.798,69.144 226.187 C 68.657 226.890,68.534 227.355,68.261 229.528 C 64.717 257.777,68.145 274.724,79.762 286.399 C 86.140 292.808,93.440 296.258,103.583 297.658 C 110.329 298.589,111.078 299.061,113.465 303.884 C 114.109 305.185,115.615 308.237,116.811 310.667 C 120.367 317.887,126.807 329.734,128.811 332.743 C 131.940 337.440,135.751 338.021,140.651 334.546 C 146.772 330.205,151.142 325.730,155.992 318.833 C 163.687 307.891,166.916 307.739,173.696 318.000 C 174.937 319.879,178.106 324.567,180.737 328.417 C 186.353 336.634,194.545 348.638,196.921 352.128 C 197.840 353.478,199.485 355.896,200.577 357.500 C 204.313 362.990,204.796 363.413,206.675 362.850 C 208.348 362.349,208.690 361.635,209.329 357.315 C 211.337 343.741,217.122 327.378,223.145 318.240 C 225.582 314.541,225.769 314.575,229.673 319.417 C 236.651 328.070,248.484 339.449,252.563 341.429 C 257.014 343.589,263.373 341.955,270.066 336.932 C 275.086 333.165,278.942 328.888,287.590 317.500 C 298.369 303.306,299.855 301.447,300.161 301.774 C 301.167 302.851,309.040 311.795,312.171 315.417 C 319.808 324.251,321.986 325.959,325.161 325.600 C 328.100 325.267,329.473 323.742,332.831 317.083 C 346.452 290.072,352.101 258.368,348.657 228.250 C 347.828 220.995,347.665 220.323,346.561 219.587 C 346.167 219.325,345.986 218.985,345.669 217.920 C 341.229 203.001,314.062 190.141,272.709 183.383 L 268.834 182.750 268.834 156.792 L 268.833 130.833 253.833 130.833 L 238.833 130.833 238.833 119.358 L 238.833 107.882 240.792 107.783 C 244.813 107.580,248.789 106.134,252.500 103.523 C 253.700 102.679,257.833 98.721,257.833 98.416 C 257.833 98.310,255.077 96.007,251.708 93.298 C 248.340 90.589,245.401 88.225,245.177 88.043 L 244.771 87.713 246.677 85.273 C 247.726 83.931,248.583 82.767,248.583 82.686 C 248.583 82.547,244.178 79.007,243.999 79.002 C 243.952 79.001,243.061 80.088,242.017 81.417 C 240.974 82.746,240.074 83.833,240.018 83.832 C 239.962 83.831,237.702 82.050,234.994 79.874 C 232.287 77.697,229.767 75.675,229.393 75.380 L 228.714 74.843 227.458 76.713 C 220.333 87.325,221.870 100.264,230.878 105.499 L 232.167 106.248 232.167 118.541 L 232.167 130.833 216.417 130.833 L 200.667 130.833 200.667 96.917 L 200.667 63.000 173.750 63.000 L 146.834 63.000 146.792 122.864 M195.500 147.167 L 195.500 226.167 189.750 226.167 L 184.000 226.167 184.000 207.917 L 184.000 189.667 173.667 189.667 L 163.333 189.667 163.333 207.917 L 163.333 226.167 157.667 226.167 L 152.000 226.167 152.000 147.167 L 152.000 68.167 173.750 68.167 L 195.500 68.167 195.500 147.167 M64.000 76.002 C 51.317 77.743,42.067 87.990,41.546 100.875 L 41.453 103.167 82.393 103.167 C 104.910 103.167,123.333 103.137,123.333 103.101 C 123.333 102.661,121.464 97.512,120.847 96.250 C 114.896 84.091,100.555 78.640,87.921 83.734 L 86.512 84.302 85.298 83.132 C 79.646 77.688,71.523 74.969,64.000 76.002 M70.667 81.091 C 75.945 81.947,80.285 84.572,83.880 89.083 C 84.610 90.000,85.260 90.736,85.325 90.718 C 85.390 90.700,86.077 90.307,86.852 89.843 C 96.529 84.060,108.838 86.816,115.018 96.151 C 115.650 97.104,116.167 97.948,116.167 98.026 C 116.167 98.103,100.560 98.167,81.485 98.167 L 46.804 98.167 46.921 97.458 C 48.653 86.957,59.735 79.320,70.667 81.091 M249.713 97.632 C 251.198 98.859,251.204 98.767,249.566 99.935 C 236.460 109.287,222.475 97.547,229.251 82.881 L 229.822 81.645 239.119 89.102 C 244.233 93.204,249.000 97.042,249.713 97.632 M160.833 93.917 L 160.833 98.333 165.167 98.333 L 169.500 98.333 169.500 93.917 L 169.500 89.500 165.167 89.500 L 160.833 89.500 160.833 93.917 M178.167 93.917 L 178.167 98.333 182.500 98.333 L 186.833 98.333 186.833 93.917 L 186.833 89.500 182.500 89.500 L 178.167 89.500 178.167 93.917 M160.833 105.417 L 160.833 109.833 165.167 109.833 L 169.500 109.833 169.500 105.417 L 169.500 101.000 165.167 101.000 L 160.833 101.000 160.833 105.417 M178.167 105.417 L 178.167 109.833 182.500 109.833 L 186.833 109.833 186.833 105.417 L 186.833 101.000 182.500 101.000 L 178.167 101.000 178.167 105.417 M160.833 116.833 L 160.833 121.167 165.167 121.167 L 169.500 121.167 169.500 116.833 L 169.500 112.500 165.167 112.500 L 160.833 112.500 160.833 116.833 M178.167 116.833 L 178.167 121.167 182.500 121.167 L 186.833 121.167 186.833 116.833 L 186.833 112.500 182.500 112.500 L 178.167 112.500 178.167 116.833 M310.000 120.265 C 296.995 121.819,287.565 131.722,287.045 144.375 L 286.951 146.667 327.100 146.664 C 349.183 146.663,367.333 146.606,367.434 146.539 C 367.688 146.370,366.413 142.481,365.445 140.474 C 359.650 128.461,345.248 122.997,332.937 128.141 L 331.409 128.780 329.868 127.331 C 324.458 122.246,316.655 119.471,310.000 120.265 M160.833 128.250 L 160.833 132.667 165.167 132.667 L 169.500 132.667 169.500 128.250 L 169.500 123.833 165.167 123.833 L 160.833 123.833 160.833 128.250 M178.167 128.250 L 178.167 132.667 182.500 132.667 L 186.833 132.667 186.833 128.250 L 186.833 123.833 182.500 123.833 L 178.167 123.833 178.167 128.250 M316.329 124.583 C 321.898 125.691,326.721 128.940,330.277 133.980 C 330.302 134.015,330.985 133.667,331.795 133.206 C 342.533 127.101,355.497 130.677,361.407 141.375 L 362.029 142.500 326.595 142.500 L 291.160 142.500 291.246 142.125 C 291.292 141.919,291.410 141.375,291.507 140.917 C 293.389 132.007,300.536 125.658,310.250 124.264 C 311.186 124.130,315.079 124.334,316.329 124.583 M160.833 139.667 L 160.833 144.000 165.167 144.000 L 169.500 144.000 169.500 139.667 L 169.500 135.333 165.167 135.333 L 160.833 135.333 160.833 139.667 M178.167 139.667 L 178.167 144.000 182.500 144.000 L 186.833 144.000 186.833 139.667 L 186.833 135.333 182.500 135.333 L 178.167 135.333 178.167 139.667 M263.667 181.083 L 263.667 226.167 232.167 226.167 L 200.667 226.167 200.667 181.083 L 200.667 136.000 232.167 136.000 L 263.667 136.000 263.667 181.083 M209.833 151.417 L 209.833 157.167 215.583 157.167 L 221.333 157.167 221.333 151.417 L 221.333 145.667 215.583 145.667 L 209.833 145.667 209.833 151.417 M226.667 151.417 L 226.667 157.167 232.417 157.167 L 238.167 157.167 238.167 151.417 L 238.167 145.667 232.417 145.667 L 226.667 145.667 226.667 151.417 M243.167 151.417 L 243.167 157.167 248.917 157.167 L 254.667 157.167 254.667 151.417 L 254.667 145.667 248.917 145.667 L 243.167 145.667 243.167 151.417 M160.833 151.083 L 160.833 155.500 165.167 155.500 L 169.500 155.500 169.500 151.083 L 169.500 146.667 165.167 146.667 L 160.833 146.667 160.833 151.083 M178.167 151.083 L 178.167 155.500 182.500 155.500 L 186.833 155.500 186.833 151.083 L 186.833 146.667 182.500 146.667 L 178.167 146.667 178.167 151.083 M160.833 162.583 L 160.833 167.000 165.167 167.000 L 169.500 167.000 169.500 162.583 L 169.500 158.167 165.167 158.167 L 160.833 158.167 160.833 162.583 M178.167 162.583 L 178.167 167.000 182.500 167.000 L 186.833 167.000 186.833 162.583 L 186.833 158.167 182.500 158.167 L 178.167 158.167 178.167 162.583 M209.611 160.611 C 209.550 160.672,209.500 163.260,209.500 166.361 L 209.500 172.000 215.250 172.000 L 221.000 172.000 221.000 166.250 L 221.000 160.500 215.361 160.500 C 212.260 160.500,209.672 160.550,209.611 160.611 M226.500 166.250 L 226.500 172.000 232.250 172.000 L 238.000 172.000 238.000 166.250 L 238.000 160.500 232.250 160.500 L 226.500 160.500 226.500 166.250 M242.944 160.611 C 242.883 160.672,242.833 163.260,242.833 166.361 L 242.833 172.000 248.583 172.000 L 254.333 172.000 254.333 166.250 L 254.333 160.500 248.694 160.500 C 245.593 160.500,243.006 160.550,242.944 160.611 M160.833 173.917 L 160.833 178.333 165.167 178.333 L 169.500 178.333 169.500 173.917 L 169.500 169.500 165.167 169.500 L 160.833 169.500 160.833 173.917 M178.167 173.917 L 178.167 178.333 182.500 178.333 L 186.833 178.333 186.833 173.917 L 186.833 169.500 182.500 169.500 L 178.167 169.500 178.167 173.917 M209.500 181.250 L 209.500 187.000 215.250 187.000 L 221.000 187.000 221.000 181.250 L 221.000 175.500 215.250 175.500 L 209.500 175.500 209.500 181.250 M226.500 181.250 L 226.500 187.000 232.250 187.000 L 238.000 187.000 238.000 181.250 L 238.000 175.500 232.250 175.500 L 226.500 175.500 226.500 181.250 M242.944 175.611 C 242.883 175.672,242.833 178.260,242.833 181.361 L 242.833 187.000 248.583 187.000 L 254.333 187.000 254.333 181.250 L 254.333 175.500 248.694 175.500 C 245.593 175.500,243.006 175.550,242.944 175.611 M146.792 209.715 L 146.835 231.319 172.292 231.368 C 186.294 231.395,213.744 231.395,233.292 231.368 L 268.833 231.320 268.833 209.664 L 268.833 188.008 269.292 188.090 C 269.544 188.135,271.550 188.475,273.750 188.846 C 308.565 194.713,333.933 205.629,339.800 217.267 C 349.675 236.853,301.979 256.499,234.667 260.573 C 223.941 261.223,222.855 261.250,207.750 261.247 C 144.501 261.234,91.164 248.499,77.311 230.102 C 66.640 215.932,87.348 200.476,129.333 191.271 C 134.673 190.100,146.157 187.970,146.583 188.072 C 146.693 188.098,146.764 195.485,146.792 209.715 M178.000 210.000 L 178.000 224.333 173.667 224.333 L 169.333 224.333 169.333 210.000 L 169.333 195.667 173.667 195.667 L 178.000 195.667 178.000 210.000 M343.236 234.042 C 345.233 259.247,340.626 285.455,330.075 308.917 C 328.853 311.634,325.223 318.818,324.875 319.208 C 324.303 319.850,324.099 319.678,320.032 315.099 C 318.227 313.066,313.312 307.531,309.111 302.797 C 300.885 293.530,300.855 293.502,299.508 293.752 C 297.975 294.037,297.932 294.085,290.748 303.583 C 277.567 321.009,272.768 326.839,268.782 330.265 C 263.207 335.056,257.804 337.262,254.952 335.912 C 251.880 334.457,240.968 323.666,233.390 314.588 C 228.984 309.310,226.767 308.381,222.938 310.210 C 217.243 312.929,208.227 332.316,204.676 349.479 C 204.404 350.797,204.159 351.894,204.132 351.918 C 204.105 351.942,202.583 349.756,200.750 347.059 C 198.917 344.363,196.861 341.353,196.183 340.370 C 195.504 339.387,192.024 334.233,188.449 328.917 C 177.108 312.049,174.833 308.980,172.171 306.965 C 166.708 302.828,160.360 304.015,154.936 310.187 C 154.055 311.190,153.427 312.039,150.271 316.500 C 146.015 322.516,136.931 331.024,135.005 330.798 C 134.196 330.703,124.918 313.972,121.162 305.833 C 118.585 300.250,117.706 298.661,116.093 296.664 C 113.713 293.718,111.407 292.691,105.454 291.924 C 82.969 289.025,71.802 272.985,72.986 245.289 C 73.179 240.769,73.653 234.651,73.826 234.456 C 73.888 234.385,74.432 234.877,75.035 235.548 C 95.127 257.908,170.574 271.164,243.583 265.161 C 292.345 261.152,331.015 248.810,342.167 233.696 C 343.117 232.408,343.106 232.404,343.236 234.042 " stroke="none" fill="#040404" fill-rule="evenodd"></path><path id="path1" d="M0.000 200.000 L 0.000 400.000 200.000 400.000 L 400.000 400.000 400.000 200.000 L 400.000 0.000 200.000 0.000 L 0.000 0.000 0.000 200.000 M200.667 96.917 L 200.667 130.833 216.417 130.833 L 232.167 130.833 232.167 118.541 L 232.167 106.248 230.878 105.499 C 221.870 100.264,220.333 87.325,227.458 76.713 L 228.714 74.843 229.393 75.380 C 229.767 75.675,232.287 77.697,234.994 79.874 C 237.702 82.050,239.962 83.831,240.018 83.832 C 240.074 83.833,240.974 82.746,242.017 81.417 C 243.061 80.088,243.952 79.001,243.999 79.002 C 244.178 79.007,248.583 82.547,248.583 82.686 C 248.583 82.767,247.726 83.931,246.677 85.273 L 244.771 87.713 245.177 88.043 C 245.401 88.225,248.340 90.589,251.708 93.298 C 255.077 96.007,257.833 98.310,257.833 98.416 C 257.833 98.721,253.700 102.679,252.500 103.523 C 248.789 106.134,244.813 107.580,240.792 107.783 L 238.833 107.882 238.833 119.358 L 238.833 130.833 253.833 130.833 L 268.833 130.833 268.834 156.792 L 268.834 182.750 272.709 183.383 C 314.062 190.141,341.229 203.001,345.669 217.920 C 345.986 218.985,346.167 219.325,346.561 219.587 C 347.665 220.323,347.828 220.995,348.657 228.250 C 352.101 258.368,346.452 290.072,332.831 317.083 C 329.473 323.742,328.100 325.267,325.161 325.600 C 321.986 325.959,319.808 324.251,312.171 315.417 C 309.040 311.795,301.167 302.851,300.161 301.774 C 299.855 301.447,298.369 303.306,287.590 317.500 C 278.942 328.888,275.086 333.165,270.066 336.932 C 263.373 341.955,257.014 343.589,252.563 341.429 C 248.484 339.449,236.651 328.070,229.673 319.417 C 225.769 314.575,225.582 314.541,223.145 318.240 C 217.122 327.378,211.337 343.741,209.329 357.315 C 208.690 361.635,208.348 362.349,206.675 362.850 C 204.796 363.413,204.313 362.990,200.577 357.500 C 199.485 355.896,197.840 353.478,196.921 352.128 C 194.545 348.638,186.353 336.634,180.737 328.417 C 178.106 324.567,174.937 319.879,173.696 318.000 C 166.916 307.739,163.687 307.891,155.992 318.833 C 151.142 325.730,146.772 330.205,140.651 334.546 C 135.751 338.021,131.940 337.440,128.811 332.743 C 126.807 329.734,120.367 317.887,116.811 310.667 C 115.615 308.237,114.109 305.185,113.465 303.884 C 111.078 299.061,110.329 298.589,103.583 297.658 C 93.440 296.258,86.140 292.808,79.762 286.399 C 68.145 274.724,64.717 257.777,68.261 229.528 C 68.534 227.355,68.657 226.890,69.144 226.187 C 69.414 225.798,69.439 225.471,69.370 223.224 C 68.843 205.973,95.253 191.496,141.667 183.594 L 146.750 182.728 146.792 122.864 L 146.834 63.000 173.750 63.000 L 200.667 63.000 200.667 96.917 M152.000 147.167 L 152.000 226.167 157.667 226.167 L 163.333 226.167 163.333 207.917 L 163.333 189.667 173.667 189.667 L 184.000 189.667 184.000 207.917 L 184.000 226.167 189.750 226.167 L 195.500 226.167 195.500 147.167 L 195.500 68.167 173.750 68.167 L 152.000 68.167 152.000 147.167 M72.464 76.312 C 77.409 77.369,81.660 79.628,85.298 83.132 L 86.512 84.302 87.921 83.734 C 100.555 78.640,114.896 84.091,120.847 96.250 C 121.464 97.512,123.333 102.661,123.333 103.101 C 123.333 103.137,104.910 103.167,82.393 103.167 L 41.453 103.167 41.546 100.875 C 42.198 84.760,56.994 73.006,72.464 76.312 M63.750 81.102 C 55.388 82.602,48.223 89.566,46.921 97.458 L 46.804 98.167 81.485 98.167 C 100.560 98.167,116.167 98.103,116.167 98.026 C 116.167 97.948,115.650 97.104,115.018 96.151 C 108.838 86.816,96.529 84.060,86.852 89.843 C 86.077 90.307,85.390 90.700,85.325 90.718 C 85.260 90.736,84.610 90.000,83.880 89.083 C 78.818 82.730,71.298 79.749,63.750 81.102 M229.251 82.881 C 223.681 94.935,232.064 106.062,244.090 102.577 C 246.366 101.917,249.949 99.982,250.805 98.950 C 251.053 98.652,251.607 99.118,239.119 89.102 L 229.822 81.645 229.251 82.881 M169.500 93.917 L 169.500 98.333 165.167 98.333 L 160.833 98.333 160.833 93.917 L 160.833 89.500 165.167 89.500 L 169.500 89.500 169.500 93.917 M186.833 93.917 L 186.833 98.333 182.500 98.333 L 178.167 98.333 178.167 93.917 L 178.167 89.500 182.500 89.500 L 186.833 89.500 186.833 93.917 M169.500 105.417 L 169.500 109.833 165.167 109.833 L 160.833 109.833 160.833 105.417 L 160.833 101.000 165.167 101.000 L 169.500 101.000 169.500 105.417 M186.833 105.417 L 186.833 109.833 182.500 109.833 L 178.167 109.833 178.167 105.417 L 178.167 101.000 182.500 101.000 L 186.833 101.000 186.833 105.417 M169.500 116.833 L 169.500 121.167 165.167 121.167 L 160.833 121.167 160.833 116.833 L 160.833 112.500 165.167 112.500 L 169.500 112.500 169.500 116.833 M186.833 116.833 L 186.833 121.167 182.500 121.167 L 178.167 121.167 178.167 116.833 L 178.167 112.500 182.500 112.500 L 186.833 112.500 186.833 116.833 M317.170 120.675 C 322.023 121.681,326.170 123.854,329.868 127.331 L 331.409 128.780 332.937 128.141 C 345.248 122.997,359.650 128.461,365.445 140.474 C 366.413 142.481,367.688 146.370,367.434 146.539 C 367.333 146.606,349.183 146.663,327.100 146.664 L 286.951 146.667 287.045 144.375 C 287.565 131.722,296.995 121.819,310.000 120.265 C 311.419 120.096,315.499 120.329,317.170 120.675 M169.500 128.250 L 169.500 132.667 165.167 132.667 L 160.833 132.667 160.833 128.250 L 160.833 123.833 165.167 123.833 L 169.500 123.833 169.500 128.250 M186.833 128.250 L 186.833 132.667 182.500 132.667 L 178.167 132.667 178.167 128.250 L 178.167 123.833 182.500 123.833 L 186.833 123.833 186.833 128.250 M310.250 124.264 C 300.536 125.658,293.389 132.007,291.507 140.917 C 291.410 141.375,291.292 141.919,291.246 142.125 L 291.160 142.500 326.595 142.500 L 362.029 142.500 361.407 141.375 C 355.497 130.677,342.533 127.101,331.795 133.206 C 330.985 133.667,330.302 134.015,330.277 133.980 C 325.516 127.233,317.310 123.252,310.250 124.264 M169.500 139.667 L 169.500 144.000 165.167 144.000 L 160.833 144.000 160.833 139.667 L 160.833 135.333 165.167 135.333 L 169.500 135.333 169.500 139.667 M186.833 139.667 L 186.833 144.000 182.500 144.000 L 178.167 144.000 178.167 139.667 L 178.167 135.333 182.500 135.333 L 186.833 135.333 186.833 139.667 M200.667 181.083 L 200.667 226.167 232.167 226.167 L 263.667 226.167 263.667 181.083 L 263.667 136.000 232.167 136.000 L 200.667 136.000 200.667 181.083 M221.333 151.417 L 221.333 157.167 215.583 157.167 L 209.833 157.167 209.833 151.417 L 209.833 145.667 215.583 145.667 L 221.333 145.667 221.333 151.417 M238.167 151.417 L 238.167 157.167 232.417 157.167 L 226.667 157.167 226.667 151.417 L 226.667 145.667 232.417 145.667 L 238.167 145.667 238.167 151.417 M254.667 151.417 L 254.667 157.167 248.917 157.167 L 243.167 157.167 243.167 151.417 L 243.167 145.667 248.917 145.667 L 254.667 145.667 254.667 151.417 M169.500 151.083 L 169.500 155.500 165.167 155.500 L 160.833 155.500 160.833 151.083 L 160.833 146.667 165.167 146.667 L 169.500 146.667 169.500 151.083 M186.833 151.083 L 186.833 155.500 182.500 155.500 L 178.167 155.500 178.167 151.083 L 178.167 146.667 182.500 146.667 L 186.833 146.667 186.833 151.083 M169.500 162.583 L 169.500 167.000 165.167 167.000 L 160.833 167.000 160.833 162.583 L 160.833 158.167 165.167 158.167 L 169.500 158.167 169.500 162.583 M186.833 162.583 L 186.833 167.000 182.500 167.000 L 178.167 167.000 178.167 162.583 L 178.167 158.167 182.500 158.167 L 186.833 158.167 186.833 162.583 M221.000 166.250 L 221.000 172.000 215.250 172.000 L 209.500 172.000 209.500 166.361 C 209.500 163.260,209.550 160.672,209.611 160.611 C 209.672 160.550,212.260 160.500,215.361 160.500 L 221.000 160.500 221.000 166.250 M238.000 166.250 L 238.000 172.000 232.250 172.000 L 226.500 172.000 226.500 166.250 L 226.500 160.500 232.250 160.500 L 238.000 160.500 238.000 166.250 M254.333 166.250 L 254.333 172.000 248.583 172.000 L 242.833 172.000 242.833 166.361 C 242.833 163.260,242.883 160.672,242.944 160.611 C 243.006 160.550,245.593 160.500,248.694 160.500 L 254.333 160.500 254.333 166.250 M169.500 173.917 L 169.500 178.333 165.167 178.333 L 160.833 178.333 160.833 173.917 L 160.833 169.500 165.167 169.500 L 169.500 169.500 169.500 173.917 M186.833 173.917 L 186.833 178.333 182.500 178.333 L 178.167 178.333 178.167 173.917 L 178.167 169.500 182.500 169.500 L 186.833 169.500 186.833 173.917 M221.000 181.250 L 221.000 187.000 215.250 187.000 L 209.500 187.000 209.500 181.250 L 209.500 175.500 215.250 175.500 L 221.000 175.500 221.000 181.250 M238.000 181.250 L 238.000 187.000 232.250 187.000 L 226.500 187.000 226.500 181.250 L 226.500 175.500 232.250 175.500 L 238.000 175.500 238.000 181.250 M254.333 181.250 L 254.333 187.000 248.583 187.000 L 242.833 187.000 242.833 181.361 C 242.833 178.260,242.883 175.672,242.944 175.611 C 243.006 175.550,245.593 175.500,248.694 175.500 L 254.333 175.500 254.333 181.250 M142.333 188.747 C 105.708 195.161,81.300 205.714,75.680 217.564 C 66.631 236.646,111.854 255.700,177.167 260.323 C 188.928 261.156,191.834 261.243,207.750 261.247 C 222.855 261.250,223.941 261.223,234.667 260.573 C 301.979 256.499,349.675 236.853,339.800 217.267 C 333.933 205.629,308.565 194.713,273.750 188.846 C 271.550 188.475,269.544 188.135,269.292 188.090 L 268.833 188.008 268.833 209.664 L 268.833 231.320 233.292 231.368 C 213.744 231.395,186.294 231.395,172.292 231.368 L 146.835 231.319 146.792 209.715 C 146.764 195.485,146.693 188.098,146.583 188.072 C 146.492 188.050,144.579 188.354,142.333 188.747 M169.333 210.000 L 169.333 224.333 173.667 224.333 L 178.000 224.333 178.000 210.000 L 178.000 195.667 173.667 195.667 L 169.333 195.667 169.333 210.000 M342.167 233.696 C 331.015 248.810,292.345 261.152,243.583 265.161 C 170.574 271.164,95.127 257.908,75.035 235.548 C 74.432 234.877,73.888 234.385,73.826 234.456 C 73.653 234.651,73.179 240.769,72.986 245.289 C 71.802 272.985,82.969 289.025,105.454 291.924 C 111.407 292.691,113.713 293.718,116.093 296.664 C 117.706 298.661,118.585 300.250,121.162 305.833 C 124.918 313.972,134.196 330.703,135.005 330.798 C 136.931 331.024,146.015 322.516,150.271 316.500 C 153.427 312.039,154.055 311.190,154.936 310.187 C 160.360 304.015,166.708 302.828,172.171 306.965 C 174.833 308.980,177.108 312.049,188.449 328.917 C 192.024 334.233,195.504 339.387,196.183 340.370 C 196.861 341.353,198.917 344.363,200.750 347.059 C 202.583 349.756,204.105 351.942,204.132 351.918 C 204.159 351.894,204.404 350.797,204.676 349.479 C 206.911 338.676,210.925 327.900,216.496 317.747 C 219.771 311.778,222.154 309.661,225.750 309.528 C 228.618 309.421,229.644 310.100,233.390 314.588 C 240.968 323.666,251.880 334.457,254.952 335.912 C 257.804 337.262,263.207 335.056,268.782 330.265 C 272.768 326.839,277.567 321.009,290.748 303.583 C 297.932 294.085,297.975 294.037,299.508 293.752 C 300.855 293.502,300.885 293.530,309.111 302.797 C 325.953 321.771,324.209 319.955,324.875 319.208 C 325.223 318.818,328.853 311.634,330.075 308.917 C 340.626 285.455,345.233 259.247,343.236 234.042 C 343.106 232.404,343.117 232.408,342.167 233.696 " stroke="none" fill="#fbfbfb" fill-rule="evenodd"></path></g></svg>