<svg width="123" height="32" viewBox="0 0 123 32" fill="none" xmlns="http://www.w3.org/2000/svg">
<path fill-rule="evenodd" clip-rule="evenodd" d="M114.888 13.9204C115.647 13.3623 116.58 13.0274 117.599 13.0274C120.124 13.0274 122.164 15.0615 122.164 17.5669C122.164 20.0723 120.112 22.1188 117.599 22.1188C116.58 22.1188 115.647 21.784 114.888 21.2258V27.4646H112.6V13.2258H114.888V13.9204ZM115.112 17.5917C115.112 18.9561 116.219 20.0723 117.599 20.0723C118.98 20.0723 120.087 18.9561 120.087 17.5917C120.087 16.2274 118.967 15.1111 117.599 15.1111C116.231 15.1111 115.112 16.2274 115.112 17.5917Z" fill="#FAF6FD"/>
<path fill-rule="evenodd" clip-rule="evenodd" d="M37.5721 12.5065C37.1865 13.4615 37 14.5158 37 15.6816C37 16.8103 37.199 17.8398 37.5721 18.7824C37.9576 19.7127 38.4799 20.5189 39.1639 21.1762C39.8355 21.8336 40.6438 22.3545 41.589 22.7142C42.5341 23.0739 43.5664 23.2599 44.6856 23.2599C45.8173 23.2475 46.862 23.0615 47.8071 22.677C48.7523 22.2925 49.5731 21.7716 50.2571 21.1018C50.9411 20.432 51.4758 19.6258 51.8614 18.6956C52.2469 17.7654 52.4334 16.7359 52.4334 15.5948C52.4334 14.4289 52.2469 13.3747 51.8614 12.432C51.4758 11.4894 50.9411 10.6832 50.2571 10.0134C49.5731 9.34366 48.7523 8.84753 47.8071 8.48784C46.862 8.12815 45.8298 7.96691 44.6856 7.97932C43.5664 7.97932 42.5341 8.16536 41.589 8.52505C40.6563 8.88474 39.8479 9.40567 39.1639 10.0754C38.4924 10.7452 37.9576 11.5514 37.5721 12.5065ZM40.0842 17.6661C39.8479 17.0088 39.7235 16.2894 39.7235 15.508C39.7235 14.7886 39.8355 14.1064 40.0842 13.4739C40.3205 12.8413 40.6687 12.2956 41.104 11.8243C41.5517 11.353 42.074 10.9933 42.6834 10.7204C43.2928 10.4599 43.9768 10.3235 44.7354 10.3235C45.4815 10.3235 46.1655 10.4475 46.7874 10.7204C47.3967 10.9809 47.9315 11.353 48.3668 11.8243C48.802 12.2956 49.1503 12.8413 49.3865 13.4739C49.6228 14.1064 49.7472 14.7886 49.7472 15.508C49.7472 16.2894 49.6228 17.0088 49.3865 17.6661C49.1503 18.3235 48.802 18.8816 48.3668 19.3654C47.9315 19.8491 47.4092 20.2212 46.7874 20.494C46.178 20.7669 45.494 20.9033 44.7354 20.9033C43.9768 20.9033 43.2928 20.7669 42.6834 20.494C42.0616 20.2212 41.5392 19.8491 41.104 19.3654C40.6687 18.894 40.3205 18.3235 40.0842 17.6661Z" fill="#FAF6FD"/>
<path d="M53.876 13.0274H56.214V14.6026H56.2513C56.4876 14.1064 56.8358 13.6847 57.3208 13.325C57.8059 12.9654 58.4525 12.7793 59.2733 12.7793C59.9325 12.7793 60.4921 12.8909 60.9523 13.1018C61.4124 13.325 61.7855 13.6103 62.0715 13.9576C62.3576 14.3173 62.569 14.7266 62.6933 15.1855C62.8177 15.6568 62.8799 16.1406 62.8799 16.6367V22.8506H60.4175V17.8646C60.4175 17.5917 60.4051 17.2816 60.3802 16.9468C60.3553 16.6119 60.2807 16.3018 60.1688 16.0041C60.0568 15.7064 59.8703 15.4584 59.6216 15.2599C59.3728 15.0615 59.0371 14.9623 58.6142 14.9623C58.2038 14.9623 57.8556 15.0367 57.5696 15.1731C57.2835 15.3095 57.0597 15.4956 56.8731 15.7312C56.6866 15.9669 56.5498 16.2274 56.4752 16.5375C56.3881 16.8351 56.3508 17.1576 56.3508 17.4801V22.8506H53.8884V13.0274H53.876Z" fill="#FAF6FD"/>
<path fill-rule="evenodd" clip-rule="evenodd" d="M67.6928 20.5437C67.2078 20.1344 66.9217 19.5638 66.8347 18.8196H74.3462V18.1375C74.3462 17.2816 74.2343 16.5251 74.0104 15.8553C73.7866 15.1855 73.4757 14.6274 73.0653 14.1809C72.6673 13.7219 72.1823 13.3747 71.6102 13.139C71.0506 12.9033 70.4163 12.7793 69.7323 12.7793C68.9862 12.7793 68.2897 12.9033 67.6306 13.1514C66.9715 13.3871 66.4119 13.7468 65.9268 14.1933C65.4418 14.6522 65.0687 15.1979 64.7827 15.8305C64.4967 16.463 64.3599 17.17 64.3599 17.9514C64.3599 18.7328 64.4967 19.4398 64.7827 20.0723C65.0687 20.7173 65.4418 21.263 65.9268 21.7096C66.3994 22.1561 66.9715 22.5034 67.6306 22.7514C68.2897 22.9995 68.9862 23.1235 69.7323 23.1235C70.5158 23.1235 71.262 22.9747 71.9709 22.677C72.6798 22.3793 73.3264 21.8708 73.8985 21.1638L72.1326 19.8243C71.8217 20.2088 71.461 20.5313 71.0382 20.7793C70.6153 21.0398 70.1054 21.1638 69.4836 21.1638C68.7872 21.1638 68.1902 20.953 67.6928 20.5437ZM71.2122 15.2599C71.6599 15.6816 71.8838 16.2522 71.8962 16.9716H66.8347C66.9342 16.2646 67.1953 15.694 67.6306 15.2723C68.0534 14.8506 68.6379 14.6398 69.3841 14.6398C70.1676 14.6398 70.777 14.8382 71.2122 15.2599Z" fill="#FAF6FD"/>
<path d="M83.2007 11.477C82.9271 11.0801 82.554 10.7948 82.1063 10.6088C81.6462 10.4227 81.1612 10.3359 80.6513 10.3359C80.3528 10.3359 80.0543 10.3731 79.7807 10.4351C79.4947 10.5096 79.246 10.6088 79.0221 10.7576C78.7983 10.9065 78.6117 11.1049 78.4749 11.3406C78.3381 11.5762 78.2635 11.8615 78.2635 12.1964C78.2635 12.6925 78.4376 13.0646 78.7734 13.3251C79.1216 13.5855 79.5445 13.8088 80.0543 14.0072C80.5642 14.1933 81.1114 14.3793 81.7208 14.5654C82.3302 14.739 82.8774 14.9871 83.3873 15.3096C83.8972 15.6196 84.32 16.0413 84.6682 16.5623C85.0164 17.0832 85.1781 17.7778 85.1781 18.6336C85.1781 19.415 85.0289 20.0972 84.7428 20.6801C84.4568 21.263 84.0713 21.7468 83.5862 22.1313C83.1012 22.5158 82.5292 22.801 81.8949 22.9871C81.2482 23.1731 80.5767 23.2723 79.8554 23.2723C78.9475 23.2723 78.077 23.1235 77.2437 22.8258C76.4105 22.5282 75.6892 22.0196 75.0798 21.3127L77.0323 19.4274C77.3432 19.9111 77.7661 20.2832 78.276 20.5437C78.7858 20.8165 79.333 20.9406 79.9175 20.9406C80.216 20.9406 80.5269 20.9034 80.8254 20.8165C81.1239 20.7297 81.3975 20.6057 81.6462 20.4444C81.8949 20.2832 82.0939 20.0723 82.2431 19.8243C82.3924 19.5762 82.467 19.2785 82.467 18.9561C82.467 18.4227 82.2929 18.0134 81.9571 17.7282C81.6089 17.4429 81.186 17.1948 80.6762 16.9964C80.1663 16.7979 79.6191 16.6119 79.0097 16.4382C78.4003 16.2646 77.8531 16.0165 77.3432 15.7065C76.8333 15.3964 76.4105 14.9871 76.0623 14.4785C75.7141 13.97 75.5524 13.2754 75.5524 12.4196C75.5524 11.663 75.7016 11.0181 76.0126 10.4723C76.3235 9.92661 76.7214 9.46769 77.2313 9.108C77.7288 8.74831 78.3008 8.47544 78.9475 8.3018C79.5942 8.12816 80.2533 8.02893 80.9249 8.02893C81.6959 8.02893 82.4421 8.14056 83.151 8.37622C83.8723 8.61188 84.519 8.99637 85.091 9.52971L83.2007 11.477Z" fill="#FAF6FD"/>
<path d="M85.489 13.0274H88.1628L90.3018 19.9235H90.3392L92.329 13.0274H95.0152L97.1542 19.9235H97.1915L99.2435 13.0274H101.731L98.373 22.8754H95.923L93.5726 16.1406H93.5353L91.4584 22.8754H88.9214L85.489 13.0274Z" fill="#FAF6FD"/>
<path fill-rule="evenodd" clip-rule="evenodd" d="M108.484 21.5235H108.546H108.558V22.8878H110.785V17.2196C110.785 17.0247 110.775 16.792 110.764 16.5298C110.763 16.4916 110.761 16.4528 110.76 16.4134C110.747 16.1033 110.697 15.7809 110.623 15.4584C110.548 15.1235 110.424 14.801 110.25 14.4785C110.076 14.1561 109.827 13.8708 109.516 13.6227C109.205 13.3747 108.807 13.1762 108.322 13.015C107.85 12.8537 107.253 12.7793 106.556 12.7793C105.773 12.7793 105.014 12.9033 104.28 13.1514C103.547 13.3995 102.9 13.8088 102.353 14.3669L103.659 15.6444C103.982 15.3344 104.38 15.0863 104.828 14.9002C105.275 14.7142 105.76 14.6274 106.283 14.6274C106.942 14.6274 107.489 14.7762 107.912 15.0863C108.335 15.3964 108.546 15.8553 108.546 16.4754V16.7483H107.924C107.514 16.7483 107.066 16.7483 106.606 16.7731C106.133 16.7979 105.673 16.8475 105.213 16.922C104.753 16.9964 104.305 17.108 103.882 17.2568C103.46 17.4057 103.086 17.6165 102.763 17.8646C102.44 18.1126 102.179 18.4351 101.992 18.8072C101.806 19.1793 101.706 19.6382 101.706 20.1716C101.706 20.6553 101.806 21.0894 102.017 21.4615C102.216 21.8212 102.49 22.1313 102.825 22.3793C103.161 22.6274 103.547 22.8134 103.982 22.9375C104.417 23.0615 104.865 23.1235 105.313 23.1235C105.972 23.1235 106.581 22.9871 107.128 22.739C107.675 22.4909 108.123 22.0816 108.484 21.5235ZM107.899 18.4723H108.409V19.0181C108.409 19.7126 108.21 20.2584 107.8 20.6677C107.402 21.077 106.768 21.2754 105.922 21.2754C105.711 21.2754 105.512 21.2506 105.3 21.201C105.089 21.1514 104.902 21.077 104.741 20.9653C104.579 20.8537 104.442 20.7297 104.343 20.5684C104.243 20.4072 104.193 20.2212 104.193 19.9855C104.193 19.6258 104.318 19.3529 104.579 19.1545C104.84 18.956 105.163 18.8072 105.536 18.708C105.922 18.5964 106.32 18.5343 106.743 18.5095C107.178 18.4847 107.551 18.4723 107.899 18.4723Z" fill="#FAF6FD"/>
<path fill-rule="evenodd" clip-rule="evenodd" d="M13.6699 25.676C12.5484 26.3223 11.8007 27.5029 11.8007 28.8451C11.8007 30.0009 12.349 31.02 13.1964 31.6787C5.7072 30.3613 0 23.8118 0 15.9698C0 7.17089 7.17762 0 16.0001 0C17.645 0 18.9783 1.32978 18.9783 2.97027C18.9783 4.61075 17.645 5.94053 16.0001 5.94053C10.4674 5.94053 5.96889 10.427 5.96889 15.945C5.96889 20.6676 9.25863 24.6196 13.6699 25.676ZM20.2241 3.00734C20.2241 1.93854 19.7506 0.981594 19.0029 0.310488C26.4049 1.70241 31.9999 8.17734 31.9999 15.9572C31.9999 24.7561 24.8223 31.9146 15.9998 31.9146C14.3549 31.9146 13.0216 30.5848 13.0216 28.9443C13.0216 27.3039 14.3549 25.9741 15.9998 25.9741C21.5326 25.9741 26.031 21.4876 26.031 15.9696C26.031 11.2222 22.7039 7.24525 18.2553 6.22616C19.4266 5.59234 20.2241 4.38684 20.2241 3.00734Z" fill="#FAF6FD"/>
</svg>
